{
  "accessors": [
    {
      "bufferView": 2,
      "componentType": 5126,
      "count": 2042,
      "max": [
        57.2855110168457,
        111.87252807617188,
        -91.63690185546875
      ],
      "min": [
        -125.64466857910156,
        -3.814697265625e-06,
        -192.18939208984375
      ],
      "type": "VEC3"
    },
    {
      "bufferView": 2,
      "byteOffset": 24504,
      "componentType": 5126,
      "count": 2042,
      "max": [
        1.0,
        0.9998176693916321,
        0.9996358752250671
      ],
      "min": [
        -1.0,
        -1.0,
        -1.0
      ],
      "type": "VEC3"
    },
    {
      "bufferView": 3,
      "componentType": 5126,
      "count": 2042,
      "max": [
        1.0,
        1.0,
        1.0,
        1.0
      ],
      "min": [
        -0.7066259384155273,
        -1.0,
        -1.0,
        1.0
      ],
      "type": "VEC4"
    },
    {
      "bufferView": 1,
      "componentType": 5126,
      "count": 2042,
      "max": [
        0.9921678900718689,
        0.9145422577857971
      ],
      "min": [
        0.0019920319318771362,
        0.0018254335736855865
      ],
      "type": "VEC2"
    },
    {
      "bufferView": 0,
      "componentType": 5125,
      "count": 3264,
      "type": "SCALAR"
    },
    {
      "bufferView": 2,
      "byteOffset": 49008,
      "componentType": 5126,
      "count": 296,
      "max": [
        53.84102249145508,
        111.87252807617188,
        -101.75057983398438
      ],
      "min": [
        -121.968994140625,
        50.299407958984375,
        -192.18939208984375
      ],
      "type": "VEC3"
    },
    {
      "bufferView": 2,
      "byteOffset": 52560,
      "componentType": 5126,
      "count": 296,
      "max": [
        0.08268805593252182,
        0.9998176693916321,
        0.9996551871299744
      ],
      "min": [
        -0.08268802613019943,
        -0.9996578097343445,
        -1.0
      ],
      "type": "VEC3"
    },
    {
      "bufferView": 3,
      "byteOffset": 32672,
      "componentType": 5126,
      "count": 296,
      "max": [
        0.013981714844703674,
        0.9996551275253296,
        0.9996578097343445,
        1.0
      ],
      "min": [
        -0.013981634750962257,
        -1.0,
        -0.9998176693916321,
        1.0
      ],
      "type": "VEC4"
    },
    {
      "bufferView": 1,
      "byteOffset": 16336,
      "componentType": 5126,
      "count": 296,
      "max": [
        0.9980079531669617,
        0.8971425890922546
      ],
      "min": [
        0.006625013891607523,
        0.007669542916119099
      ],
      "type": "VEC2"
    },
    {
      "bufferView": 0,
      "byteOffset": 13056,
      "componentType": 5125,
      "count": 456,
      "type": "SCALAR"
    }
  ],
  "asset": {
    "extras": {
      "author": "Sam (https://sketchfab.com/rawpuwnzl)",
      "license": "CC-BY-4.0 (http://creativecommons.org/licenses/by/4.0/)",
      "source": "https://sketchfab.com/3d-models/park-bench-bdfdc8f568964bbb9aece833323c7ecf",
      "title": "Park Bench"
    },
    "generator": "Sketchfab-12.67.0",
    "version": "2.0"
  },
  "bufferViews": [
    {
      "buffer": 0,
      "byteLength": 14880,
      "name": "floatBufferViews",
      "target": 34963
    },
    {
      "buffer": 0,
      "byteLength": 18704,
      "byteOffset": 14880,
      "byteStride": 8,
      "name": "floatBufferViews",
      "target": 34962
    },
    {
      "buffer": 0,
      "byteLength": 56112,
      "byteOffset": 33584,
      "byteStride": 12,
      "name": "floatBufferViews",
      "target": 34962
    },
    {
      "buffer": 0,
      "byteLength": 37408,
      "byteOffset": 89696,
      "byteStride": 16,
      "name": "floatBufferViews",
      "target": 34962
    }
  ],
  "buffers": [
    {
      "byteLength": 127104,
      "uri": "scene.bin"
    }
  ],
  "images": [
    {
      "uri": "textures/Prop_Bench_01_Mat_baseColor.png"
    },
    {
      "uri": "textures/Prop_Bench_01_Mat_metallicRoughness.png"
    },
    {
      "uri": "textures/Prop_Bench_01_Mat_normal.png"
    },
    {
      "uri": "textures/Prop_Bench_01_Mat2_baseColor.png"
    },
    {
      "uri": "textures/Prop_Bench_01_Mat2_metallicRoughness.png"
    },
    {
      "uri": "textures/Prop_Bench_01_Mat2_normal.png"
    }
  ],
  "materials": [
    {
      "doubleSided": true,
      "name": "Prop_Bench_01_Mat",
      "normalTexture": {
        "index": 2
      },
      "pbrMetallicRoughness": {
        "baseColorTexture": {
          "index": 0
        },
        "metallicRoughnessTexture": {
          "index": 1
        }
      }
    },
    {
      "doubleSided": true,
      "name": "Prop_Bench_01_Mat2",
      "normalTexture": {
        "index": 5
      },
      "pbrMetallicRoughness": {
        "baseColorTexture": {
          "index": 3
        },
        "metallicRoughnessTexture": {
          "index": 4
        }
      }
    }
  ],
  "meshes": [
    {
      "name": "Prop_Bench_01_Prop_Bench_01_Mat_0",
      "primitives": [
        {
          "attributes": {
            "NORMAL": 1,
            "POSITION": 0,
            "TANGENT": 2,
            "TEXCOORD_0": 3
          },
          "indices": 4,
          "material": 0,
          "mode": 4
        }
      ]
    },
    {
      "name": "Prop_Bench_01_Prop_Bench_01_Mat2_0",
      "primitives": [
        {
          "attributes": {
            "NORMAL": 6,
            "POSITION": 5,
            "TANGENT": 7,
            "TEXCOORD_0": 8
          },
          "indices": 9,
          "material": 1,
          "mode": 4
        }
      ]
    }
  ],
  "nodes": [
    {
      "children": [
        1
      ],
      "matrix": [
        1.0,
        0.0,
        0.0,
        0.0,
        0.0,
        2.220446049250313e-16,
        -1.0,
        0.0,
        0.0,
        1.0,
        2.220446049250313e-16,
        0.0,
        0.0,
        0.0,
        0.0,
        1.0
      ],
      "name": "Sketchfab_model"
    },
    {
      "children": [
        2
      ],
      "matrix": [
        1.0,
        0.0,
        0.0,
        0.0,
        0.0,
        0.0,
        1.0,
        0.0,
        0.0,
        -1.0,
        0.0,
        0.0,
        0.0,
        0.0,
        0.0,
        1.0
      ],
      "name": "ba338a1fdff4421b8b31e6bdb2d29fe3.fbx"
    },
    {
      "children": [
        3
      ],
      "name": "RootNode"
    },
    {
      "children": [
        4,
        5
      ],
      "matrix": [
        0.009999999776482582,
        0.0,
        0.0,
        0.0,
        0.0,
        0.009999999776482582,
        0.0,
        0.0,
        0.0,
        0.0,
        0.009999999776482582,
        0.0,
        0.0,
        0.0,
        0.0,
        1.0
      ],
      "name": "Prop_Bench_01"
    },
    {
      "mesh": 0,
      "name": "Prop_Bench_01_Prop_Bench_01_Mat_0"
    },
    {
      "mesh": 1,
      "name": "Prop_Bench_01_Prop_Bench_01_Mat2_0"
    }
  ],
  "samplers": [
    {
      "magFilter": 9729,
      "minFilter": 9987,
      "wrapS": 10497,
      "wrapT": 10497
    }
  ],
  "scene": 0,
  "scenes": [
    {
      "name": "Sketchfab_Scene",
      "nodes": [
        0
      ]
    }
  ],
  "textures": [
    {
      "sampler": 0,
      "source": 0
    },
    {
      "sampler": 0,
      "source": 1
    },
    {
      "sampler": 0,
      "source": 2
    },
    {
      "sampler": 0,
      "source": 3
    },
    {
      "sampler": 0,
      "source": 4
    },
    {
      "sampler": 0,
      "source": 5
    }
  ]
}
